<?xml version="1.0" encoding="UTF-8" standalone="no"?>
<!DOCTYPE svg PUBLIC "-//W3C//DTD SVG 1.1//EN"
 "http://www.w3.org/Graphics/SVG/1.1/DTD/svg11.dtd">
<!-- Generated by graphviz version 2.38.0 (20140413.2041)
 -->
<!-- Title: %3 Pages: 1 -->
<svg width="1217pt" height="698pt"
 viewBox="0.00 0.00 1217.29 698.00" xmlns="http://www.w3.org/2000/svg" xmlns:xlink="http://www.w3.org/1999/xlink">
<g id="graph0" class="graph" transform="scale(1 1) rotate(0) translate(4 694)">
<title>%3</title>
<polygon fill="white" stroke="none" points="-4,4 -4,-694 1213.29,-694 1213.29,4 -4,4"/>
<!-- MasterManager -->
<g id="node1" class="node"><title>MasterManager</title>
<ellipse fill="none" stroke="black" cx="679.293" cy="-672" rx="86.3847" ry="18"/>
<text text-anchor="middle" x="679.293" y="-668.3" font-family="Times,serif" font-size="14.00">MasterManager</text>
</g>
<!-- AutonomousManager -->
<g id="node2" class="node"><title>AutonomousManager</title>
<ellipse fill="none" stroke="black" cx="679.293" cy="-599" rx="110.48" ry="18"/>
<text text-anchor="middle" x="679.293" y="-595.3" font-family="Times,serif" font-size="14.00">AutonomousManager</text>
</g>
<!-- MasterManager&#45;&gt;AutonomousManager -->
<g id="edge1" class="edge"><title>MasterManager&#45;&gt;AutonomousManager</title>
<path fill="none" stroke="red" d="M679.293,-653.813C679.293,-645.789 679.293,-636.047 679.293,-627.069"/>
<polygon fill="red" stroke="red" points="682.793,-627.029 679.293,-617.029 675.793,-627.029 682.793,-627.029"/>
</g>
<!-- RegularManager -->
<g id="node3" class="node"><title>RegularManager</title>
<ellipse fill="none" stroke="black" cx="679.293" cy="-526" rx="89.0842" ry="18"/>
<text text-anchor="middle" x="679.293" y="-522.3" font-family="Times,serif" font-size="14.00">RegularManager</text>
</g>
<!-- AutonomousManager&#45;&gt;RegularManager -->
<g id="edge2" class="edge"><title>AutonomousManager&#45;&gt;RegularManager</title>
<path fill="none" stroke="red" d="M679.293,-580.813C679.293,-572.789 679.293,-563.047 679.293,-554.069"/>
<polygon fill="red" stroke="red" points="682.793,-554.029 679.293,-544.029 675.793,-554.029 682.793,-554.029"/>
</g>
<!-- IdleManager -->
<g id="node4" class="node"><title>IdleManager</title>
<ellipse fill="none" stroke="black" cx="679.293" cy="-453" rx="70.6878" ry="18"/>
<text text-anchor="middle" x="679.293" y="-449.3" font-family="Times,serif" font-size="14.00">IdleManager</text>
</g>
<!-- RegularManager&#45;&gt;IdleManager -->
<g id="edge10" class="edge"><title>RegularManager&#45;&gt;IdleManager</title>
<path fill="none" stroke="red" d="M679.293,-507.813C679.293,-499.789 679.293,-490.047 679.293,-481.069"/>
<polygon fill="red" stroke="red" points="682.793,-481.029 679.293,-471.029 675.793,-481.029 682.793,-481.029"/>
</g>
<!-- ManeuverManager -->
<g id="node5" class="node"><title>ManeuverManager</title>
<ellipse fill="none" stroke="black" cx="679.293" cy="-366" rx="100.182" ry="18"/>
<text text-anchor="middle" x="679.293" y="-362.3" font-family="Times,serif" font-size="14.00">ManeuverManager</text>
</g>
<!-- IdleManager&#45;&gt;ManeuverManager -->
<g id="edge3" class="edge"><title>IdleManager&#45;&gt;ManeuverManager</title>
<path fill="none" stroke="black" d="M634.58,-438.989C614.404,-430.621 597.121,-418.255 607.293,-402 610.959,-396.142 615.916,-391.24 621.526,-387.142"/>
<polygon fill="black" stroke="black" points="623.555,-390 630.136,-381.697 619.813,-384.084 623.555,-390"/>
<text text-anchor="middle" x="669.293" y="-405.8" font-family="Times,serif" font-size="14.00">mission_received</text>
</g>
<!-- ManeuverManager&#45;&gt;IdleManager -->
<g id="edge6" class="edge"><title>ManeuverManager&#45;&gt;IdleManager</title>
<path fill="none" stroke="black" d="M713.707,-383.108C727.371,-391.918 738.355,-403.734 731.293,-417 728.508,-422.231 724.556,-426.82 720.058,-430.803"/>
<polygon fill="black" stroke="black" points="717.872,-428.069 712.084,-436.943 722.142,-433.616 717.872,-428.069"/>
<text text-anchor="middle" x="814.793" y="-405.8" font-family="Times,serif" font-size="14.00">mission_accomplished</text>
</g>
<!-- IntersectionManager -->
<g id="node6" class="node"><title>IntersectionManager</title>
<ellipse fill="none" stroke="black" cx="381.293" cy="-279" rx="109.681" ry="18"/>
<text text-anchor="middle" x="381.293" y="-275.3" font-family="Times,serif" font-size="14.00">IntersectionManager</text>
</g>
<!-- ManeuverManager&#45;&gt;IntersectionManager -->
<g id="edge4" class="edge"><title>ManeuverManager&#45;&gt;IntersectionManager</title>
<path fill="none" stroke="black" d="M590.13,-357.762C551.258,-352.732 505.671,-344.254 466.293,-330 447.587,-323.229 428.351,-312.304 412.919,-302.391"/>
<polygon fill="black" stroke="black" points="414.581,-299.294 404.306,-296.71 410.727,-305.137 414.581,-299.294"/>
<text text-anchor="middle" x="534.793" y="-318.8" font-family="Times,serif" font-size="14.00">intersection_ahead</text>
</g>
<!-- DriveManager -->
<g id="node7" class="node"><title>DriveManager</title>
<ellipse fill="none" stroke="black" cx="613.293" cy="-192" rx="77.9862" ry="18"/>
<text text-anchor="middle" x="613.293" y="-188.3" font-family="Times,serif" font-size="14.00">DriveManager</text>
</g>
<!-- ManeuverManager&#45;&gt;DriveManager -->
<g id="edge5" class="edge"><title>ManeuverManager&#45;&gt;DriveManager</title>
<path fill="none" stroke="black" d="M664.118,-348.107C653.257,-335.07 639.207,-316.089 631.293,-297 621.027,-272.238 616.616,-241.817 614.721,-220.289"/>
<polygon fill="black" stroke="black" points="618.203,-219.917 613.959,-210.209 611.223,-220.445 618.203,-219.917"/>
<text text-anchor="middle" x="675.293" y="-275.3" font-family="Times,serif" font-size="14.00">drive_ahead</text>
</g>
<!-- Evaluate -->
<g id="node15" class="node"><title>Evaluate</title>
<ellipse fill="none" stroke="black" cx="935.293" cy="-279" rx="51.9908" ry="18"/>
<text text-anchor="middle" x="935.293" y="-275.3" font-family="Times,serif" font-size="14.00">Evaluate</text>
</g>
<!-- ManeuverManager&#45;&gt;Evaluate -->
<g id="edge26" class="edge"><title>ManeuverManager&#45;&gt;Evaluate</title>
<path fill="none" stroke="red" d="M724.766,-349.902C771.178,-334.491 842.825,-310.702 889.392,-295.241"/>
<polygon fill="red" stroke="red" points="890.542,-298.547 898.93,-292.074 888.336,-291.903 890.542,-298.547"/>
</g>
<!-- IntersectionManager&#45;&gt;DriveManager -->
<g id="edge9" class="edge"><title>IntersectionManager&#45;&gt;DriveManager</title>
<path fill="none" stroke="black" d="M436.963,-263.479C454.715,-258.011 474.183,-251.118 491.293,-243 502.319,-237.769 503.351,-233.406 514.293,-228 527.971,-221.243 543.286,-215.163 557.706,-210.04"/>
<polygon fill="black" stroke="black" points="559.207,-213.224 567.515,-206.65 556.92,-206.608 559.207,-213.224"/>
<text text-anchor="middle" x="558.793" y="-231.8" font-family="Times,serif" font-size="14.00">entry_ahead</text>
</g>
<!-- WaitPrecedence -->
<g id="node8" class="node"><title>WaitPrecedence</title>
<ellipse fill="none" stroke="black" cx="211.293" cy="-192" rx="86.3847" ry="18"/>
<text text-anchor="middle" x="211.293" y="-188.3" font-family="Times,serif" font-size="14.00">WaitPrecedence</text>
</g>
<!-- IntersectionManager&#45;&gt;WaitPrecedence -->
<g id="edge14" class="edge"><title>IntersectionManager&#45;&gt;WaitPrecedence</title>
<path fill="none" stroke="red" d="M348.515,-261.611C321.004,-247.855 281.575,-228.141 252.036,-213.372"/>
<polygon fill="red" stroke="red" points="253.33,-210.105 242.821,-208.764 250.2,-216.366 253.33,-210.105"/>
</g>
<!-- DriveManager&#45;&gt;ManeuverManager -->
<g id="edge8" class="edge"><title>DriveManager&#45;&gt;ManeuverManager</title>
<path fill="none" stroke="black" d="M653.798,-207.459C677.491,-218.257 705.399,-235.58 719.293,-261 733.381,-286.775 716.684,-318.563 700.765,-340.162"/>
<polygon fill="black" stroke="black" points="697.904,-338.14 694.541,-348.187 703.436,-342.43 697.904,-338.14"/>
<text text-anchor="middle" x="786.293" y="-275.3" font-family="Times,serif" font-size="14.00">maneuver_ahead</text>
</g>
<!-- DriveManager&#45;&gt;IntersectionManager -->
<g id="edge7" class="edge"><title>DriveManager&#45;&gt;IntersectionManager</title>
<path fill="none" stroke="black" d="M535.292,-192.673C467.79,-194.253 377.471,-201.479 354.293,-228 347.799,-235.431 350.502,-244.688 356.207,-253.211"/>
<polygon fill="black" stroke="black" points="353.459,-255.379 362.394,-261.073 358.96,-251.05 353.459,-255.379"/>
<text text-anchor="middle" x="422.793" y="-231.8" font-family="Times,serif" font-size="14.00">intersection_ahead</text>
</g>
<!-- LaneKeeping -->
<g id="node12" class="node"><title>LaneKeeping</title>
<ellipse fill="none" stroke="black" cx="613.293" cy="-105" rx="71.4873" ry="18"/>
<text text-anchor="middle" x="613.293" y="-101.3" font-family="Times,serif" font-size="14.00">LaneKeeping</text>
</g>
<!-- DriveManager&#45;&gt;LaneKeeping -->
<g id="edge20" class="edge"><title>DriveManager&#45;&gt;LaneKeeping</title>
<path fill="none" stroke="red" d="M613.293,-173.799C613.293,-162.163 613.293,-146.548 613.293,-133.237"/>
<polygon fill="red" stroke="red" points="616.793,-133.175 613.293,-123.175 609.793,-133.175 616.793,-133.175"/>
</g>
<!-- Navigate -->
<g id="node9" class="node"><title>Navigate</title>
<ellipse fill="none" stroke="black" cx="174.293" cy="-105" rx="53.0913" ry="18"/>
<text text-anchor="middle" x="174.293" y="-101.3" font-family="Times,serif" font-size="14.00">Navigate</text>
</g>
<!-- WaitPrecedence&#45;&gt;Navigate -->
<g id="edge11" class="edge"><title>WaitPrecedence&#45;&gt;Navigate</title>
<path fill="none" stroke="black" d="M203.805,-173.799C198.606,-161.854 191.582,-145.717 185.69,-132.183"/>
<polygon fill="black" stroke="black" points="188.843,-130.657 181.643,-122.885 182.425,-133.451 188.843,-130.657"/>
<text text-anchor="middle" x="241.793" y="-144.8" font-family="Times,serif" font-size="14.00">right_of_way</text>
</g>
<!-- WaitClearance -->
<g id="node10" class="node"><title>WaitClearance</title>
<ellipse fill="none" stroke="black" cx="79.293" cy="-18" rx="79.0865" ry="18"/>
<text text-anchor="middle" x="79.293" y="-14.3" font-family="Times,serif" font-size="14.00">WaitClearance</text>
</g>
<!-- Navigate&#45;&gt;WaitClearance -->
<g id="edge12" class="edge"><title>Navigate&#45;&gt;WaitClearance</title>
<path fill="none" stroke="black" d="M170.088,-86.9779C166.745,-76.4025 161.131,-63.1311 152.293,-54 146.185,-47.6898 138.71,-42.3748 130.898,-37.9452"/>
<polygon fill="black" stroke="black" points="132.479,-34.822 121.992,-33.3144 129.249,-41.0327 132.479,-34.822"/>
<text text-anchor="middle" x="218.793" y="-57.8" font-family="Times,serif" font-size="14.00">obstacle_ahead</text>
</g>
<!-- WaitClearance&#45;&gt;Navigate -->
<g id="edge13" class="edge"><title>WaitClearance&#45;&gt;Navigate</title>
<path fill="none" stroke="black" d="M40.5779,-33.7376C22.5895,-42.8167 7.33951,-55.3167 18.293,-69 30.2751,-83.9683 74.7578,-92.9742 113.172,-98.0938"/>
<polygon fill="black" stroke="black" points="112.938,-101.592 123.298,-99.3746 113.816,-94.6472 112.938,-101.592"/>
<text text-anchor="middle" x="83.293" y="-57.8" font-family="Times,serif" font-size="14.00">intersection_clear</text>
</g>
<!-- LaneChange -->
<g id="node11" class="node"><title>LaneChange</title>
<ellipse fill="none" stroke="black" cx="719.293" cy="-18" rx="69.5877" ry="18"/>
<text text-anchor="middle" x="719.293" y="-14.3" font-family="Times,serif" font-size="14.00">LaneChange</text>
</g>
<!-- LaneChange&#45;&gt;LaneKeeping -->
<g id="edge15" class="edge"><title>LaneChange&#45;&gt;LaneKeeping</title>
<path fill="none" stroke="black" d="M788.193,-20.5979C843.179,-24.3131 906.539,-35.6203 877.293,-69 853.927,-95.6681 763.796,-102.944 695.288,-104.493"/>
<polygon fill="black" stroke="black" points="694.853,-101 684.921,-104.688 694.985,-107.999 694.853,-101"/>
<text text-anchor="middle" x="930.793" y="-57.8" font-family="Times,serif" font-size="14.00">correct_lane</text>
</g>
<!-- LaneKeeping&#45;&gt;LaneChange -->
<g id="edge16" class="edge"><title>LaneKeeping&#45;&gt;LaneChange</title>
<path fill="none" stroke="black" d="M608.988,-86.668C607.446,-76.2349 607.499,-63.2299 614.293,-54 622.634,-42.6681 634.794,-34.9553 647.906,-29.7184"/>
<polygon fill="black" stroke="black" points="649.303,-32.9378 657.581,-26.3263 646.987,-26.3321 649.303,-32.9378"/>
<text text-anchor="middle" x="655.793" y="-57.8" font-family="Times,serif" font-size="14.00">wrong_lane</text>
</g>
<!-- LaneKeeping&#45;&gt;LaneChange -->
<g id="edge17" class="edge"><title>LaneKeeping&#45;&gt;LaneChange</title>
<path fill="none" stroke="black" d="M660.64,-91.4928C673.744,-86.2357 687.14,-78.9546 697.293,-69 703.815,-62.6053 708.544,-53.9451 711.905,-45.6292"/>
<polygon fill="black" stroke="black" points="715.212,-46.7764 715.248,-36.1816 708.613,-44.441 715.212,-46.7764"/>
<text text-anchor="middle" x="786.793" y="-57.8" font-family="Times,serif" font-size="14.00">obstacle_ahead_avoid</text>
</g>
<!-- StopDetected -->
<g id="node13" class="node"><title>StopDetected</title>
<ellipse fill="none" stroke="black" cx="284.293" cy="-18" rx="74.187" ry="18"/>
<text text-anchor="middle" x="284.293" y="-14.3" font-family="Times,serif" font-size="14.00">StopDetected</text>
</g>
<!-- LaneKeeping&#45;&gt;StopDetected -->
<g id="edge18" class="edge"><title>LaneKeeping&#45;&gt;StopDetected</title>
<path fill="none" stroke="black" d="M545.713,-99.1075C499.678,-94.4539 437.8,-85.588 385.293,-69 362.526,-61.8073 338.514,-50.1105 319.618,-39.8381"/>
<polygon fill="black" stroke="black" points="321.223,-36.7259 310.78,-34.9356 317.827,-42.8472 321.223,-36.7259"/>
<text text-anchor="middle" x="426.293" y="-57.8" font-family="Times,serif" font-size="14.00">stop_ahead</text>
</g>
<!-- CheckpointDetected -->
<g id="node14" class="node"><title>CheckpointDetected</title>
<ellipse fill="none" stroke="black" cx="483.293" cy="-18" rx="106.681" ry="18"/>
<text text-anchor="middle" x="483.293" y="-14.3" font-family="Times,serif" font-size="14.00">CheckpointDetected</text>
</g>
<!-- LaneKeeping&#45;&gt;CheckpointDetected -->
<g id="edge19" class="edge"><title>LaneKeeping&#45;&gt;CheckpointDetected</title>
<path fill="none" stroke="black" d="M551.578,-95.8638C519.507,-90.235 485.007,-81.485 475.293,-69 470.283,-62.5604 469.957,-54.2181 471.577,-46.1991"/>
<polygon fill="black" stroke="black" points="475.001,-46.9635 474.465,-36.3822 468.285,-44.9881 475.001,-46.9635"/>
<text text-anchor="middle" x="540.293" y="-57.8" font-family="Times,serif" font-size="14.00">checkpoint_ahead</text>
</g>
<!-- EmergencyBrake -->
<g id="node16" class="node"><title>EmergencyBrake</title>
<ellipse fill="none" stroke="black" cx="883.293" cy="-192" rx="91.784" ry="18"/>
<text text-anchor="middle" x="883.293" y="-188.3" font-family="Times,serif" font-size="14.00">EmergencyBrake</text>
</g>
<!-- Evaluate&#45;&gt;EmergencyBrake -->
<g id="edge21" class="edge"><title>Evaluate&#45;&gt;EmergencyBrake</title>
<path fill="none" stroke="black" d="M894.661,-267.698C855.5,-257.723 802.037,-243.963 801.293,-243 790.748,-229.347 802.121,-218.562 819.417,-210.558"/>
<polygon fill="black" stroke="black" points="821.017,-213.684 828.918,-206.625 818.339,-207.216 821.017,-213.684"/>
<text text-anchor="middle" x="857.793" y="-231.8" font-family="Times,serif" font-size="14.00">no_lanes_ahead</text>
</g>
<!-- Parking -->
<g id="node17" class="node"><title>Parking</title>
<ellipse fill="none" stroke="black" cx="1080.29" cy="-192" rx="46.5926" ry="18"/>
<text text-anchor="middle" x="1080.29" y="-188.3" font-family="Times,serif" font-size="14.00">Parking</text>
</g>
<!-- Evaluate&#45;&gt;Parking -->
<g id="edge22" class="edge"><title>Evaluate&#45;&gt;Parking</title>
<path fill="none" stroke="black" d="M985.521,-274.102C1028.34,-269.612 1085.15,-260.484 1099.29,-243 1105.04,-235.896 1103.56,-226.865 1099.56,-218.439"/>
<polygon fill="black" stroke="black" points="1102.51,-216.541 1094.46,-209.653 1096.46,-220.057 1102.51,-216.541"/>
<text text-anchor="middle" x="1156.29" y="-231.8" font-family="Times,serif" font-size="14.00">parking_ahead</text>
</g>
<!-- NavigateToLanes -->
<g id="node18" class="node"><title>NavigateToLanes</title>
<ellipse fill="none" stroke="black" cx="980.293" cy="-105" rx="91.784" ry="18"/>
<text text-anchor="middle" x="980.293" y="-101.3" font-family="Times,serif" font-size="14.00">NavigateToLanes</text>
</g>
<!-- EmergencyBrake&#45;&gt;NavigateToLanes -->
<g id="edge24" class="edge"><title>EmergencyBrake&#45;&gt;NavigateToLanes</title>
<path fill="none" stroke="black" d="M902.457,-174.207C917.071,-161.401 937.377,-143.607 953.585,-129.404"/>
<polygon fill="black" stroke="black" points="955.954,-131.981 961.169,-122.758 951.341,-126.717 955.954,-131.981"/>
<text text-anchor="middle" x="991.293" y="-144.8" font-family="Times,serif" font-size="14.00">vehicle_is_still</text>
</g>
<!-- Parking&#45;&gt;Evaluate -->
<g id="edge23" class="edge"><title>Parking&#45;&gt;Evaluate</title>
<path fill="none" stroke="black" d="M1038.43,-200.249C997.349,-207.788 939.899,-219.637 933.293,-228 928.219,-234.423 927.151,-242.891 927.828,-251.029"/>
<polygon fill="black" stroke="black" points="924.386,-251.673 929.447,-260.981 931.295,-250.548 924.386,-251.673"/>
<text text-anchor="middle" x="1014.29" y="-231.8" font-family="Times,serif" font-size="14.00">parking_accomplished</text>
</g>
<!-- NavigateToCheckpoint -->
<g id="node19" class="node"><title>NavigateToCheckpoint</title>
<ellipse fill="none" stroke="black" cx="1013.29" cy="-18" rx="117.779" ry="18"/>
<text text-anchor="middle" x="1013.29" y="-14.3" font-family="Times,serif" font-size="14.00">NavigateToCheckpoint</text>
</g>
<!-- NavigateToLanes&#45;&gt;NavigateToCheckpoint -->
<g id="edge25" class="edge"><title>NavigateToLanes&#45;&gt;NavigateToCheckpoint</title>
<path fill="none" stroke="black" d="M986.971,-86.799C991.533,-75.0474 997.671,-59.2383 1002.87,-45.8421"/>
<polygon fill="black" stroke="black" points="1006.27,-46.7643 1006.62,-36.1754 999.743,-44.2308 1006.27,-46.7643"/>
<text text-anchor="middle" x="1064.29" y="-57.8" font-family="Times,serif" font-size="14.00">checkpoint_ahead</text>
</g>
</g>
</svg>
